<?xml version="1.0" encoding="UTF-8" standalone="no"?>
<!DOCTYPE svg PUBLIC "-//W3C//DTD SVG 1.1//EN"
 "http://www.w3.org/Graphics/SVG/1.1/DTD/svg11.dtd">
<!-- Generated by graphviz version 2.40.1 (20161225.0304)
 -->
<!-- Title: G Pages: 1 -->
<svg width="801pt" height="121pt"
 viewBox="0.00 0.00 801.45 121.00" xmlns="http://www.w3.org/2000/svg" xmlns:xlink="http://www.w3.org/1999/xlink">
<g id="graph0" class="graph" transform="scale(1 1) rotate(0) translate(4 117)">
<title>G</title>
<polygon fill="#ffffff" stroke="transparent" points="-4,4 -4,-117 797.4468,-117 797.4468,4 -4,4"/>
<!-- x -->
<g id="node1" class="node">
<title>x</title>
<ellipse fill="none" stroke="#000000" cx="694.4468" cy="-72" rx="27" ry="18"/>
<text text-anchor="middle" x="694.4468" y="-67.8" font-family="Times,serif" font-size="14.00" fill="#000000">;</text>
</g>
<!-- end -->
<g id="node3" class="node">
<title>end</title>
<ellipse fill="none" stroke="#000000" cx="775.4468" cy="-72" rx="18" ry="18"/>
<text text-anchor="middle" x="775.4468" y="-67.8" font-family="Times,serif" font-size="14.00" fill="#000000">#</text>
</g>
<!-- x&#45;&gt;end -->
<g id="edge11" class="edge">
<title>x&#45;&gt;end</title>
<path fill="none" stroke="#000000" d="M721.8697,-72C729.9115,-72 738.724,-72 746.8377,-72"/>
<polygon fill="#000000" stroke="#000000" points="746.978,-75.5001 756.978,-72 746.9779,-68.5001 746.978,-75.5001"/>
</g>
<!-- start -->
<g id="node2" class="node">
<title>start</title>
<ellipse fill="none" stroke="#000000" cx="18" cy="-95" rx="18" ry="18"/>
<text text-anchor="middle" x="18" y="-90.8" font-family="Times,serif" font-size="14.00" fill="#000000">#</text>
</g>
<!-- a -->
<g id="node4" class="node">
<title>a</title>
<ellipse fill="none" stroke="#000000" cx="99" cy="-95" rx="27" ry="18"/>
<text text-anchor="middle" x="99" y="-90.8" font-family="Times,serif" font-size="14.00" fill="#000000">a</text>
</g>
<!-- start&#45;&gt;a -->
<g id="edge1" class="edge">
<title>start&#45;&gt;a</title>
<path fill="none" stroke="#000000" d="M36.3802,-95C43.8951,-95 52.8757,-95 61.6572,-95"/>
<polygon fill="#000000" stroke="#000000" points="61.7747,-98.5001 71.7746,-95 61.7746,-91.5001 61.7747,-98.5001"/>
</g>
<!-- board -->
<g id="node5" class="node">
<title>board</title>
<ellipse fill="none" stroke="#000000" cx="195.0234" cy="-95" rx="33.0469" ry="18"/>
<text text-anchor="middle" x="195.0234" y="-90.8" font-family="Times,serif" font-size="14.00" fill="#000000">board</text>
</g>
<!-- a&#45;&gt;board -->
<g id="edge2" class="edge">
<title>a&#45;&gt;board</title>
<path fill="none" stroke="#000000" d="M126.0034,-95C133.9774,-95 142.9145,-95 151.6453,-95"/>
<polygon fill="#000000" stroke="#000000" points="151.7297,-98.5001 161.7296,-95 151.7296,-91.5001 151.7297,-98.5001"/>
</g>
<!-- creaks -->
<g id="node6" class="node">
<title>creaks</title>
<ellipse fill="none" stroke="#000000" cx="299.7424" cy="-95" rx="35.8921" ry="18"/>
<text text-anchor="middle" x="299.7424" y="-90.8" font-family="Times,serif" font-size="14.00" fill="#000000">creaks</text>
</g>
<!-- board&#45;&gt;creaks -->
<g id="edge3" class="edge">
<title>board&#45;&gt;creaks</title>
<path fill="none" stroke="#000000" d="M228.1572,-95C236.3401,-95 245.2505,-95 253.9183,-95"/>
<polygon fill="#000000" stroke="#000000" points="253.9238,-98.5001 263.9238,-95 253.9238,-91.5001 253.9238,-98.5001"/>
</g>
<!-- creaks&#45;&gt;x -->
<g id="edge4" class="edge">
<title>creaks&#45;&gt;x</title>
<path fill="none" stroke="#000000" d="M334.101,-100.1758C394.8365,-108.2756 524.8213,-120.8857 631.4468,-99 642.5771,-96.7154 654.1689,-92.3789 664.3296,-87.8389"/>
<polygon fill="#000000" stroke="#000000" points="666.017,-90.913 673.571,-83.4842 663.0331,-84.5808 666.017,-90.913"/>
</g>
<!-- on -->
<g id="node7" class="node">
<title>on</title>
<ellipse fill="none" stroke="#000000" cx="398.4379" cy="-72" rx="27" ry="18"/>
<text text-anchor="middle" x="398.4379" y="-67.8" font-family="Times,serif" font-size="14.00" fill="#000000">on</text>
</g>
<!-- creaks&#45;&gt;on -->
<g id="edge5" class="edge">
<title>creaks&#45;&gt;on</title>
<path fill="none" stroke="#000000" d="M332.3325,-87.4052C342.0839,-85.1327 352.8258,-82.6294 362.7644,-80.3134"/>
<polygon fill="#000000" stroke="#000000" points="363.8108,-83.6634 372.7554,-77.985 362.222,-76.846 363.8108,-83.6634"/>
</g>
<!-- the -->
<g id="node8" class="node">
<title>the</title>
<ellipse fill="none" stroke="#000000" cx="488.4379" cy="-72" rx="27" ry="18"/>
<text text-anchor="middle" x="488.4379" y="-67.8" font-family="Times,serif" font-size="14.00" fill="#000000">the</text>
</g>
<!-- on&#45;&gt;the -->
<g id="edge6" class="edge">
<title>on&#45;&gt;the</title>
<path fill="none" stroke="#000000" d="M425.4409,-72C433.4656,-72 442.4045,-72 450.9688,-72"/>
<polygon fill="#000000" stroke="#000000" points="451.143,-75.5001 461.1429,-72 451.1429,-68.5001 451.143,-75.5001"/>
</g>
<!-- landg -->
<g id="node9" class="node">
<title>landg</title>
<ellipse fill="none" stroke="#000000" cx="591.4424" cy="-72" rx="32.4846" ry="18"/>
<text text-anchor="middle" x="591.4424" y="-67.8" font-family="Times,serif" font-size="14.00" fill="#000000">landg</text>
</g>
<!-- the&#45;&gt;landg -->
<g id="edge7" class="edge">
<title>the&#45;&gt;landg</title>
<path fill="none" stroke="#000000" d="M515.5011,-72C525.6323,-72 537.4061,-72 548.6153,-72"/>
<polygon fill="#000000" stroke="#000000" points="548.6875,-75.5001 558.6875,-72 548.6874,-68.5001 548.6875,-75.5001"/>
</g>
<!-- landing -->
<g id="node10" class="node">
<title>landing</title>
<ellipse fill="none" stroke="#000000" cx="591.4424" cy="-18" rx="40.0089" ry="18"/>
<text text-anchor="middle" x="591.4424" y="-13.8" font-family="Times,serif" font-size="14.00" fill="#000000">landing</text>
</g>
<!-- the&#45;&gt;landing -->
<g id="edge8" class="edge">
<title>the&#45;&gt;landing</title>
<path fill="none" stroke="#000000" d="M509.7805,-60.8112C523.1514,-53.8015 540.7098,-44.5965 556.118,-36.5188"/>
<polygon fill="#000000" stroke="#000000" points="558.1456,-39.4077 565.3772,-31.6646 554.8954,-33.208 558.1456,-39.4077"/>
</g>
<!-- landg&#45;&gt;x -->
<g id="edge9" class="edge">
<title>landg&#45;&gt;x</title>
<path fill="none" stroke="#000000" d="M624.0336,-72C634.5746,-72 646.3429,-72 657.195,-72"/>
<polygon fill="#000000" stroke="#000000" points="657.2489,-75.5001 667.2489,-72 657.2488,-68.5001 657.2489,-75.5001"/>
</g>
<!-- landing&#45;&gt;x -->
<g id="edge10" class="edge">
<title>landing&#45;&gt;x</title>
<path fill="none" stroke="#000000" d="M617.7012,-31.7662C631.7829,-39.1485 649.2094,-48.2843 663.8959,-55.9837"/>
<polygon fill="#000000" stroke="#000000" points="662.6067,-59.2596 673.0886,-60.803 665.857,-53.0599 662.6067,-59.2596"/>
</g>
</g>
</svg>
