<?xml version="1.0" encoding="UTF-8" standalone="no"?>
<!DOCTYPE svg PUBLIC "-//W3C//DTD SVG 1.1//EN"
 "http://www.w3.org/Graphics/SVG/1.1/DTD/svg11.dtd">
<!-- Generated by graphviz version 2.40.1 (20161225.0304)
 -->
<!-- Title: G Pages: 1 -->
<svg width="569pt" height="98pt"
 viewBox="0.00 0.00 568.98 98.00" xmlns="http://www.w3.org/2000/svg" xmlns:xlink="http://www.w3.org/1999/xlink">
<g id="graph0" class="graph" transform="scale(1 1) rotate(0) translate(4 94)">
<title>G</title>
<polygon fill="#ffffff" stroke="transparent" points="-4,4 -4,-94 564.9814,-94 564.9814,4 -4,4"/>
<!-- start -->
<g id="node1" class="node">
<title>start</title>
<ellipse fill="none" stroke="#000000" cx="18" cy="-45" rx="18" ry="18"/>
<text text-anchor="middle" x="18" y="-40.8" font-family="Times,serif" font-size="14.00" fill="#000000">#</text>
</g>
<!-- had -->
<g id="node3" class="node">
<title>had</title>
<ellipse fill="none" stroke="#000000" cx="99" cy="-45" rx="27" ry="18"/>
<text text-anchor="middle" x="99" y="-40.8" font-family="Times,serif" font-size="14.00" fill="#000000">had</text>
</g>
<!-- start&#45;&gt;had -->
<g id="edge1" class="edge">
<title>start&#45;&gt;had</title>
<path fill="none" stroke="#000000" d="M36.3802,-45C43.8951,-45 52.8757,-45 61.6572,-45"/>
<polygon fill="#000000" stroke="#000000" points="61.7747,-48.5001 71.7746,-45 61.7746,-41.5001 61.7747,-48.5001"/>
</g>
<!-- end -->
<g id="node2" class="node">
<title>end</title>
<ellipse fill="none" stroke="#000000" cx="542.9814" cy="-45" rx="18" ry="18"/>
<text text-anchor="middle" x="542.9814" y="-40.8" font-family="Times,serif" font-size="14.00" fill="#000000">#</text>
</g>
<!-- intercourse -->
<g id="node4" class="node">
<title>intercourse</title>
<ellipse fill="none" stroke="#000000" cx="215.9346" cy="-45" rx="53.8693" ry="18"/>
<text text-anchor="middle" x="215.9346" y="-40.8" font-family="Times,serif" font-size="14.00" fill="#000000">intercourse</text>
</g>
<!-- had&#45;&gt;intercourse -->
<g id="edge2" class="edge">
<title>had&#45;&gt;intercourse</title>
<path fill="none" stroke="#000000" d="M126.1211,-45C133.8662,-45 142.6532,-45 151.6257,-45"/>
<polygon fill="#000000" stroke="#000000" points="151.7889,-48.5001 161.7889,-45 151.7888,-41.5001 151.7889,-48.5001"/>
</g>
<!-- with -->
<g id="node5" class="node">
<title>with</title>
<ellipse fill="none" stroke="#000000" cx="349.0778" cy="-72" rx="28.4088" ry="18"/>
<text text-anchor="middle" x="349.0778" y="-67.8" font-family="Times,serif" font-size="14.00" fill="#000000">with</text>
</g>
<!-- intercourse&#45;&gt;with -->
<g id="edge3" class="edge">
<title>intercourse&#45;&gt;with</title>
<path fill="none" stroke="#000000" d="M262.128,-54.3675C278.3605,-57.6593 296.3821,-61.3139 311.7898,-64.4384"/>
<polygon fill="#000000" stroke="#000000" points="311.4889,-67.9486 321.9851,-66.5059 312.8802,-61.0882 311.4889,-67.9486"/>
</g>
<!-- between -->
<g id="node6" class="node">
<title>between</title>
<ellipse fill="none" stroke="#000000" cx="349.0778" cy="-18" rx="43.4183" ry="18"/>
<text text-anchor="middle" x="349.0778" y="-13.8" font-family="Times,serif" font-size="14.00" fill="#000000">between</text>
</g>
<!-- intercourse&#45;&gt;between -->
<g id="edge4" class="edge">
<title>intercourse&#45;&gt;between</title>
<path fill="none" stroke="#000000" d="M262.128,-35.6325C274.3329,-33.1575 287.5492,-30.4773 299.9054,-27.9716"/>
<polygon fill="#000000" stroke="#000000" points="300.9364,-31.3339 310.0413,-25.9162 299.5451,-24.4735 300.9364,-31.3339"/>
</g>
<!-- them -->
<g id="node7" class="node">
<title>them</title>
<ellipse fill="none" stroke="#000000" cx="458.6339" cy="-45" rx="30.1958" ry="18"/>
<text text-anchor="middle" x="458.6339" y="-40.8" font-family="Times,serif" font-size="14.00" fill="#000000">them</text>
</g>
<!-- with&#45;&gt;them -->
<g id="edge5" class="edge">
<title>with&#45;&gt;them</title>
<path fill="none" stroke="#000000" d="M375.5983,-65.4641C389.079,-62.1417 405.704,-58.0445 420.5282,-54.3911"/>
<polygon fill="#000000" stroke="#000000" points="421.5708,-57.739 430.4427,-51.9477 419.8957,-50.9423 421.5708,-57.739"/>
</g>
<!-- between&#45;&gt;them -->
<g id="edge6" class="edge">
<title>between&#45;&gt;them</title>
<path fill="none" stroke="#000000" d="M386.4744,-27.2164C397.4849,-29.9299 409.5406,-32.901 420.5912,-35.6244"/>
<polygon fill="#000000" stroke="#000000" points="419.8512,-39.0467 430.3982,-38.0413 421.5263,-32.2501 419.8512,-39.0467"/>
</g>
<!-- them&#45;&gt;end -->
<g id="edge7" class="edge">
<title>them&#45;&gt;end</title>
<path fill="none" stroke="#000000" d="M489.0853,-45C497.3535,-45 506.2748,-45 514.4337,-45"/>
<polygon fill="#000000" stroke="#000000" points="514.6013,-48.5001 524.6013,-45 514.6012,-41.5001 514.6013,-48.5001"/>
</g>
</g>
</svg>
