<?xml version="1.0" encoding="UTF-8" standalone="no"?>
<!DOCTYPE svg PUBLIC "-//W3C//DTD SVG 1.1//EN"
        "http://www.w3.org/Graphics/SVG/1.1/DTD/svg11.dtd">
<!-- Generated by graphviz version 2.38.0 (20140413.2041)
 -->
<!-- Title: VariantWitnessGraph Pages: 1 -->
<svg width="1176pt" height="221pt"
     viewBox="0.00 0.00 1175.67 221.00" xmlns="http://www.w3.org/2000/svg">
    <g id="graph0" class="graph" transform="scale(1 1) rotate(0) translate(4 217)">
        <title>VariantWitnessGraph</title>
        <polygon fill="white" stroke="none" points="-4,4 -4,-217 1171.67,-217 1171.67,4 -4,4"/>
        <g id="clust1" class="cluster">
            <title>cluster_0</title>
            <path fill="yellow" stroke="black"
                  d="M84,-8C84,-8 1083.67,-8 1083.67,-8 1089.67,-8 1095.67,-14 1095.67,-20 1095.67,-20 1095.67,-193 1095.67,-193 1095.67,-199 1089.67,-205 1083.67,-205 1083.67,-205 84,-205 84,-205 78,-205 72,-199 72,-193 72,-193 72,-20 72,-20 72,-14 78,-8 84,-8"/>
            <text text-anchor="start" x="571.336" y="-190.8" font-family="Times New Roman,serif" font-weight="bold"
                  font-style="italic" font-size="14.00">xml
            </text>
        </g>
        <g id="clust2" class="cluster">
            <title>cluster_1</title>
            <path fill="orange" stroke="black"
                  d="M354.595,-16C354.595,-16 431.088,-16 431.088,-16 437.088,-16 443.088,-22 443.088,-28 443.088,-28 443.088,-79 443.088,-79 443.088,-85 437.088,-91 431.088,-91 431.088,-91 354.595,-91 354.595,-91 348.595,-91 342.595,-85 342.595,-79 342.595,-79 342.595,-28 342.595,-28 342.595,-22 348.595,-16 354.595,-16"/>
            <text text-anchor="start" x="383.341" y="-76.8" font-family="Times New Roman,serif" font-weight="bold"
                  font-style="italic" font-size="14.00">del
            </text>
        </g>
        <g id="clust3" class="cluster">
            <title>cluster_2</title>
            <path fill="#9aed7d" stroke="black"
                  d="M365.644,-99C365.644,-99 420.039,-99 420.039,-99 426.039,-99 432.039,-105 432.039,-111 432.039,-111 432.039,-162 432.039,-162 432.039,-168 426.039,-174 420.039,-174 420.039,-174 365.644,-174 365.644,-174 359.644,-174 353.644,-168 353.644,-162 353.644,-162 353.644,-111 353.644,-111 353.644,-105 359.644,-99 365.644,-99"/>
            <text text-anchor="start" x="381.341" y="-159.8" font-family="Times New Roman,serif" font-weight="bold"
                  font-style="italic" font-size="14.00">add
            </text>
        </g>
        <!-- begin -->
        <g id="node1" class="node">
            <title>begin</title>
            <ellipse fill="white" stroke="black" cx="22" cy="-83" rx="18" ry="18"/>
            <ellipse fill="none" stroke="black" cx="22" cy="-83" rx="22" ry="22"/>
        </g>
        <!-- A_000 -->
        <g id="node2" class="node">
            <title>A_000</title>
            <ellipse fill="white" stroke="black" cx="107.298" cy="-83" rx="27.0966" ry="18"/>
            <text text-anchor="start" x="94.2976" y="-79.3" font-family="Times New Roman,serif" font-size="14.00">The 
            </text>
        </g>
        <!-- begin&#45;&gt;A_000 -->
        <g id="edge14" class="edge">
            <title>begin&#45;&gt;A_000</title>
            <path fill="none" stroke="black" d="M44.0195,-83C51.8483,-83 60.9781,-83 69.7954,-83"/>
            <polygon fill="black" stroke="black" points="69.906,-86.5001 79.906,-83 69.9059,-79.5001 69.906,-86.5001"/>
        </g>
        <!-- A_001 -->
        <g id="node3" class="node">
            <title>A_001</title>
            <ellipse fill="white" stroke="black" cx="197.595" cy="-83" rx="27" ry="18"/>
            <text text-anchor="start" x="185.095" y="-79.3" font-family="Times New Roman,serif" font-size="14.00">
                rain 
            </text>
        </g>
        <!-- A_000&#45;&gt;A_001 -->
        <g id="edge1" class="edge">
            <title>A_000&#45;&gt;A_001</title>
            <path fill="none" stroke="black" d="M134.79,-83C142.807,-83 151.755,-83 160.297,-83"/>
            <polygon fill="black" stroke="black"
                     points="160.426,-86.5001 170.426,-83 160.426,-79.5001 160.426,-86.5001"/>
        </g>
        <!-- A_002 -->
        <g id="node4" class="node">
            <title>A_002</title>
            <ellipse fill="white" stroke="black" cx="287.595" cy="-83" rx="27" ry="18"/>
            <text text-anchor="start" x="280.595" y="-79.3" font-family="Times New Roman,serif" font-size="14.00">in 
            </text>
        </g>
        <!-- A_001&#45;&gt;A_002 -->
        <g id="edge2" class="edge">
            <title>A_001&#45;&gt;A_002</title>
            <path fill="none" stroke="black" d="M224.998,-83C232.988,-83 241.906,-83 250.419,-83"/>
            <polygon fill="black" stroke="black"
                     points="250.514,-86.5001 260.514,-83 250.514,-79.5001 250.514,-86.5001"/>
        </g>
        <!-- A_003 -->
        <g id="node5" class="node">
            <title>A_003</title>
            <ellipse fill="white" stroke="black" cx="392.841" cy="-42" rx="42.4939" ry="18"/>
            <text text-anchor="start" x="368.341" y="-38.3" font-family="Times New Roman,serif" font-size="14.00">
                Cataluña
            </text>
        </g>
        <!-- A_002&#45;&gt;A_003 -->
        <g id="edge3" class="edge">
            <title>A_002&#45;&gt;A_003</title>
            <path fill="none" stroke="black" d="M311.253,-74.0024C323.214,-69.2526 338.242,-63.2847 352.071,-57.7931"/>
            <polygon fill="black" stroke="black"
                     points="353.399,-61.0319 361.401,-54.0882 350.815,-54.5261 353.399,-61.0319"/>
        </g>
        <!-- A_004 -->
        <g id="node6" class="node">
            <title>A_004</title>
            <ellipse fill="white" stroke="black" cx="392.841" cy="-125" rx="31.3957" ry="18"/>
            <text text-anchor="start" x="376.841" y="-121.3" font-family="Times New Roman,serif" font-size="14.00">
                Spain
            </text>
        </g>
        <!-- A_002&#45;&gt;A_004 -->
        <g id="edge4" class="edge">
            <title>A_002&#45;&gt;A_004</title>
            <path fill="none" stroke="black" d="M310.998,-92.1134C324.523,-97.6152 342.038,-104.74 357.305,-110.951"/>
            <polygon fill="black" stroke="black"
                     points="356.367,-114.348 366.949,-114.874 359.005,-107.864 356.367,-114.348"/>
        </g>
        <!-- A_005 -->
        <g id="node7" class="node">
            <title>A_005</title>
            <ellipse fill="white" stroke="black" cx="498.088" cy="-83" rx="27" ry="18"/>
            <text text-anchor="start" x="496.088" y="-79.3" font-family="Times New Roman,serif" font-size="14.00"> 
            </text>
        </g>
        <!-- A_003&#45;&gt;A_005 -->
        <g id="edge5" class="edge">
            <title>A_003&#45;&gt;A_005</title>
            <path fill="none" stroke="black" d="M424.26,-54.0796C437.058,-59.1618 451.961,-65.0797 464.939,-70.2335"/>
            <polygon fill="black" stroke="black"
                     points="463.836,-73.5613 474.422,-73.9992 466.42,-67.0555 463.836,-73.5613"/>
        </g>
        <!-- A_004&#45;&gt;A_005 -->
        <g id="edge6" class="edge">
            <title>A_004&#45;&gt;A_005</title>
            <path fill="none" stroke="black" d="M418.834,-114.833C432.738,-109.177 450.19,-102.078 465.084,-96.0191"/>
            <polygon fill="black" stroke="black"
                     points="466.494,-99.224 474.438,-92.2138 463.856,-92.74 466.494,-99.224"/>
        </g>
        <!-- A_006 -->
        <g id="node8" class="node">
            <title>A_006</title>
            <ellipse fill="white" stroke="black" cx="589.035" cy="-83" rx="27.8951" ry="18"/>
            <text text-anchor="start" x="575.535" y="-79.3" font-family="Times New Roman,serif" font-size="14.00">
                falls 
            </text>
        </g>
        <!-- A_005&#45;&gt;A_006 -->
        <g id="edge7" class="edge">
            <title>A_005&#45;&gt;A_006</title>
            <path fill="none" stroke="black" d="M525.294,-83C533.236,-83 542.119,-83 550.645,-83"/>
            <polygon fill="black" stroke="black"
                     points="550.781,-86.5001 560.781,-83 550.781,-79.5001 550.781,-86.5001"/>
        </g>
        <!-- A_007 -->
        <g id="node9" class="node">
            <title>A_007</title>
            <ellipse fill="white" stroke="black" cx="689.379" cy="-83" rx="36.2938" ry="18"/>
            <text text-anchor="start" x="669.379" y="-79.3" font-family="Times New Roman,serif" font-size="14.00">
                mainly 
            </text>
        </g>
        <!-- A_006&#45;&gt;A_007 -->
        <g id="edge8" class="edge">
            <title>A_006&#45;&gt;A_007</title>
            <path fill="none" stroke="black" d="M617.169,-83C625.096,-83 633.987,-83 642.729,-83"/>
            <polygon fill="black" stroke="black"
                     points="642.856,-86.5001 652.856,-83 642.856,-79.5001 642.856,-86.5001"/>
        </g>
        <!-- A_008 -->
        <g id="node10" class="node">
            <title>A_008</title>
            <ellipse fill="white" stroke="black" cx="788.776" cy="-83" rx="27" ry="18"/>
            <text text-anchor="start" x="779.276" y="-79.3" font-family="Times New Roman,serif" font-size="14.00">on 
            </text>
        </g>
        <!-- A_007&#45;&gt;A_008 -->
        <g id="edge9" class="edge">
            <title>A_007&#45;&gt;A_008</title>
            <path fill="none" stroke="black" d="M725.817,-83C734.155,-83 743.053,-83 751.429,-83"/>
            <polygon fill="black" stroke="black"
                     points="751.679,-86.5001 761.679,-83 751.679,-79.5001 751.679,-86.5001"/>
        </g>
        <!-- A_009 -->
        <g id="node11" class="node">
            <title>A_009</title>
            <ellipse fill="white" stroke="black" cx="878.776" cy="-83" rx="27" ry="18"/>
            <text text-anchor="start" x="868.276" y="-79.3" font-family="Times New Roman,serif" font-size="14.00">the 
            </text>
        </g>
        <!-- A_008&#45;&gt;A_009 -->
        <g id="edge10" class="edge">
            <title>A_008&#45;&gt;A_009</title>
            <path fill="none" stroke="black" d="M816.179,-83C824.169,-83 833.087,-83 841.6,-83"/>
            <polygon fill="black" stroke="black"
                     points="841.695,-86.5001 851.695,-83 841.695,-79.5001 841.695,-86.5001"/>
        </g>
        <!-- A_010 -->
        <g id="node12" class="node">
            <title>A_010</title>
            <ellipse fill="white" stroke="black" cx="969.724" cy="-83" rx="27.8951" ry="18"/>
            <text text-anchor="start" x="956.224" y="-79.3" font-family="Times New Roman,serif" font-size="14.00">
                plain
            </text>
        </g>
        <!-- A_009&#45;&gt;A_010 -->
        <g id="edge11" class="edge">
            <title>A_009&#45;&gt;A_010</title>
            <path fill="none" stroke="black" d="M905.982,-83C913.924,-83 922.807,-83 931.334,-83"/>
            <polygon fill="black" stroke="black" points="931.47,-86.5001 941.47,-83 931.47,-79.5001 931.47,-86.5001"/>
        </g>
        <!-- A_011 -->
        <g id="node13" class="node">
            <title>A_011</title>
            <ellipse fill="white" stroke="black" cx="1060.67" cy="-83" rx="27" ry="18"/>
            <text text-anchor="start" x="1058.67" y="-79.3" font-family="Times New Roman,serif" font-size="14.00">.
            </text>
        </g>
        <!-- A_010&#45;&gt;A_011 -->
        <g id="edge12" class="edge">
            <title>A_010&#45;&gt;A_011</title>
            <path fill="none" stroke="black" d="M997.894,-83C1005.96,-83 1014.92,-83 1023.46,-83"/>
            <polygon fill="black" stroke="black"
                     points="1023.58,-86.5001 1033.58,-83 1023.58,-79.5001 1023.58,-86.5001"/>
        </g>
        <!-- end -->
        <g id="node14" class="node">
            <title>end</title>
            <ellipse fill="white" stroke="black" cx="1145.67" cy="-83" rx="18" ry="18"/>
            <ellipse fill="none" stroke="black" cx="1145.67" cy="-83" rx="22" ry="22"/>
        </g>
        <!-- A_011&#45;&gt;end -->
        <g id="edge13" class="edge">
            <title>A_011&#45;&gt;end</title>
            <path fill="none" stroke="black" d="M1087.93,-83C1096.01,-83 1104.99,-83 1113.37,-83"/>
            <polygon fill="black" stroke="black"
                     points="1113.57,-86.5001 1123.57,-83 1113.57,-79.5001 1113.57,-86.5001"/>
        </g>
    </g>
</svg>
